<?xml version="1.0" encoding="UTF-8" standalone="no"?>
<!DOCTYPE svg PUBLIC "-//W3C//DTD SVG 1.1//EN" "http://www.w3.org/Graphics/SVG/1.1/DTD/svg11.dtd">
<svg width="100%" height="100%" viewBox="0 0 1024 1024" version="1.1" xmlns="http://www.w3.org/2000/svg" xmlns:xlink="http://www.w3.org/1999/xlink" xml:space="preserve" xmlns:serif="http://www.serif.com/" style="fill-rule:evenodd;clip-rule:evenodd;stroke-linejoin:round;stroke-miterlimit:2;">
    <g transform="matrix(1,0,0,1,-1074.48,-7905.54)">
        <g id="Kyanoxia-Shape-SVG" serif:id="Kyanoxia Shape SVG" transform="matrix(1,0,0,1,1074.48,7905.54)">
            <rect x="0" y="0" width="1024" height="1024" style="fill:none;"/>
            <clipPath id="_clip1">
                <rect x="0" y="0" width="1024" height="1024"/>
            </clipPath>
            <g clip-path="url(#_clip1)">
                <g transform="matrix(3.8446,0,0,3.8446,-1833.87,-1444.21)">
                    <g transform="matrix(1.3833e-18,0.898929,-0.237181,-4.37776e-19,1853.92,-43.2916)">
                        <path d="M557.96,4856.56L557.96,5532.19L512,5706.37L466.04,5532.19L466.04,4856.56L512,4682.37L557.96,4856.56Z" style="fill:white;"/>
                    </g>
                    <g transform="matrix(0.898929,0,0,0.237181,58.0622,-711.449)">
                        <path d="M557.96,4856.56L557.96,5532.19L512,5706.37L466.04,5532.19L466.04,4856.56L512,4682.37L557.96,4856.56Z" style="fill:white;"/>
                    </g>
                    <g transform="matrix(0.144738,0.144738,-0.101169,0.101169,1114.39,-37.9812)">
                        <path d="M557.96,4748.13L557.96,5640.62L512,5706.37L466.04,5640.62L466.04,4748.13L512,4682.37L557.96,4748.13Z" style="fill:white;"/>
                    </g>
                    <g transform="matrix(0.718865,-0.718865,0.359433,0.359433,-1685.42,-919.829)">
                        <path d="M602.992,5148.12L648.025,5238.19L557.96,5238.19L602.992,5148.12Z" style="fill:white;"/>
                    </g>
                </g>
            </g>
        </g>
    </g>
</svg>
