<?xml version="1.0" encoding="UTF-8" standalone="no"?>
<!DOCTYPE svg PUBLIC "-//W3C//DTD SVG 1.1//EN" "http://www.w3.org/Graphics/SVG/1.1/DTD/svg11.dtd">
<svg width="100%" height="100%" viewBox="0 0 600 300" version="1.1" xmlns="http://www.w3.org/2000/svg" xmlns:xlink="http://www.w3.org/1999/xlink" xml:space="preserve" xmlns:serif="http://www.serif.com/" style="fill-rule:evenodd;clip-rule:evenodd;stroke-linejoin:round;stroke-miterlimit:2;">
    <g transform="matrix(1,0,0,1,-1024,0)">
        <g id="Logo" transform="matrix(0.585938,0,0,0.292969,1024,0)">
            <rect x="0" y="0" width="1024" height="1024" style="fill:none;"/>
            <g transform="matrix(1.0357,0,0,2.3058,-127.549,-2507.44)">
                <path d="M445.268,1345.34L400.959,1390.39L452.592,1456.02L412.608,1456.02L376.721,1411.45L360.777,1427.13L360.777,1456.02L327.774,1456.02L327.774,1299.04L360.777,1299.04L360.777,1387.94L409.012,1342.2L477.979,1342.2L509.929,1419.5L542.081,1342.2L573.814,1342.2L522.406,1463C518.739,1472.17 514.508,1479.36 509.713,1484.58C505.059,1489.8 499.84,1493.46 494.058,1495.58C488.416,1497.69 482.14,1498.75 475.229,1498.75C469.305,1498.75 463.452,1497.84 457.67,1496C451.887,1494.17 447.162,1491.63 443.495,1488.38L455.554,1464.9C458.093,1467.16 460.984,1468.92 464.228,1470.19C467.613,1471.46 470.927,1472.1 474.171,1472.1C478.825,1472.1 482.492,1470.97 485.172,1468.71C487.993,1466.6 490.532,1463 492.788,1457.92L493.193,1456.97L445.268,1345.34ZM557.389,1274.32C546.769,1293.41 526.047,1314.68 490.671,1282.31C465.369,1259.16 477.084,1236 523.141,1229.02C496.792,1233.01 467.171,1226.41 459.044,1200.5C456.705,1193.05 452.718,1147.16 452.718,1140.96C452.718,1109.91 483.243,1119.66 502.081,1132.28C527.144,1149.06 554.028,1182.39 565.261,1201.85C566.428,1200.11 567.661,1198.36 568.961,1196.61C578.003,1192.82 587.683,1190.07 597.802,1188.51C599.054,1190.51 600.537,1193.2 601.537,1195.34C612.084,1193.9 622.73,1193.9 633.475,1195.34C634.475,1193.2 635.926,1190.51 637.167,1188.51C647.275,1190.07 656.943,1192.81 665.985,1196.59C667.291,1198.32 668.543,1200.08 669.738,1201.86C680.97,1182.39 707.856,1149.06 732.921,1132.28C751.759,1119.66 782.284,1109.91 782.284,1140.96C782.284,1147.16 778.297,1193.05 775.958,1200.5C767.831,1226.41 738.21,1233.01 711.861,1229.02C757.918,1236 769.633,1259.16 744.33,1282.31C708.957,1314.68 688.236,1293.42 677.614,1274.32C668.715,1279.21 659.994,1282.54 651.384,1284.93C648.527,1281.44 646,1277.72 643.814,1273.82C647.978,1272.4 651.977,1270.66 655.757,1268.63C654.768,1267.97 653.79,1267.28 652.834,1266.57C630.124,1276.16 605.152,1276.16 582.167,1266.57C581.223,1267.28 580.245,1267.97 579.245,1268.63C583.013,1270.65 587.001,1272.39 591.165,1273.81C588.979,1277.72 586.441,1281.43 583.596,1284.92C574.995,1282.53 566.284,1279.2 557.389,1274.32ZM640.705,1254.24C647.725,1254.24 653.263,1248.5 653.263,1241.5C653.384,1234.5 647.725,1228.76 640.705,1228.76C633.684,1228.76 628.147,1234.51 628.147,1241.5C628.147,1248.5 633.805,1254.24 640.705,1254.24ZM594.297,1254.24C601.317,1254.24 606.865,1248.5 606.855,1241.5C606.975,1234.5 601.317,1228.76 594.297,1228.76C587.276,1228.76 581.739,1234.51 581.739,1241.5C581.739,1248.5 587.397,1254.24 594.297,1254.24ZM243.786,1458.56C231.939,1458.56 220.585,1457 209.725,1453.9C198.865,1450.66 190.121,1446.5 183.492,1441.42L195.128,1415.61C201.475,1420.12 208.95,1423.86 217.553,1426.82C226.297,1429.64 235.112,1431.05 243.997,1431.05C250.767,1431.05 256.197,1430.42 260.287,1429.15C264.518,1427.74 267.621,1425.84 269.596,1423.44C271.57,1421.04 272.558,1418.29 272.558,1415.19C272.558,1411.24 271.006,1408.13 267.903,1405.88C264.801,1403.48 260.71,1401.58 255.633,1400.17C250.556,1398.62 244.914,1397.2 238.709,1395.93C232.644,1394.52 226.509,1392.83 220.303,1390.86C214.238,1388.88 208.667,1386.34 203.59,1383.24C198.513,1380.14 194.352,1376.05 191.108,1370.97C188.005,1365.89 186.454,1359.41 186.454,1351.51C186.454,1343.05 188.711,1335.36 193.224,1328.45C197.878,1321.4 204.789,1315.83 213.956,1311.74C223.265,1307.5 234.9,1305.39 248.863,1305.39C258.172,1305.39 267.339,1306.52 276.366,1308.77C285.392,1310.89 293.361,1314.13 300.272,1318.51L289.694,1344.53C282.783,1340.58 275.872,1337.69 268.961,1335.85C262.05,1333.88 255.28,1332.89 248.652,1332.89C242.023,1332.89 236.593,1333.67 232.362,1335.22C228.131,1336.77 225.098,1338.82 223.265,1341.35C221.431,1343.75 220.515,1346.57 220.515,1349.82C220.515,1353.62 222.066,1356.73 225.169,1359.12C228.272,1361.38 232.362,1363.21 237.439,1364.62C242.517,1366.04 248.088,1367.44 254.152,1368.86C260.358,1370.27 266.493,1371.89 272.558,1373.72C278.763,1375.56 284.405,1378.02 289.482,1381.13C294.559,1384.23 298.65,1388.32 301.752,1393.4C304.996,1398.47 306.618,1404.89 306.618,1412.65C306.618,1420.97 304.291,1428.59 299.637,1435.5C294.983,1442.41 288.001,1447.98 278.693,1452.21C269.525,1456.44 257.89,1458.56 243.786,1458.56ZM639.186,1457.71C626.915,1457.71 615.985,1455.24 606.394,1450.31C596.804,1445.23 589.258,1438.25 583.758,1429.36C578.398,1420.48 575.718,1410.39 575.718,1399.11C575.718,1387.68 578.398,1377.6 583.758,1368.86C589.258,1359.97 596.804,1353.06 606.394,1348.12C615.985,1343.05 626.915,1340.51 639.186,1340.51C651.174,1340.51 661.611,1343.05 670.496,1348.12C679.381,1353.06 685.94,1360.18 690.171,1369.49L664.572,1383.24C661.611,1377.88 657.873,1373.93 653.36,1371.39C648.988,1368.86 644.192,1367.59 638.974,1367.59C633.332,1367.59 628.255,1368.86 623.742,1371.39C619.229,1373.93 615.632,1377.53 612.952,1382.18C610.414,1386.84 609.144,1392.48 609.144,1399.11C609.144,1405.74 610.414,1411.38 612.952,1416.03C615.632,1420.69 619.229,1424.28 623.742,1426.82C628.255,1429.36 633.332,1430.63 638.974,1430.63C644.192,1430.63 648.988,1429.43 653.36,1427.03C657.873,1424.5 661.611,1420.48 664.572,1414.98L690.171,1428.94C685.94,1438.11 679.381,1445.23 670.496,1450.31C661.611,1455.24 651.174,1457.71 639.186,1457.71ZM761.888,1457.71C749.759,1457.71 738.97,1455.17 729.52,1450.09C720.212,1445.02 712.807,1438.11 707.307,1429.36C701.947,1420.48 699.268,1410.39 699.268,1399.11C699.268,1387.68 701.947,1377.6 707.307,1368.86C712.807,1359.97 720.212,1353.06 729.52,1348.12C738.97,1343.05 749.759,1340.51 761.888,1340.51C773.877,1340.51 784.596,1343.05 794.045,1348.12C803.495,1353.06 810.899,1359.9 816.259,1368.64C821.618,1377.39 824.298,1387.54 824.298,1399.11C824.298,1410.39 821.618,1420.48 816.259,1429.36C810.899,1438.11 803.495,1445.02 794.045,1450.09C784.596,1455.17 773.877,1457.71 761.888,1457.71ZM761.888,1430.63C767.389,1430.63 772.325,1429.36 776.697,1426.82C781.07,1424.28 784.525,1420.69 787.064,1416.03C789.602,1411.24 790.872,1405.6 790.872,1399.11C790.872,1392.48 789.602,1386.84 787.064,1382.18C784.525,1377.53 781.07,1373.93 776.697,1371.39C772.325,1368.86 767.389,1367.59 761.888,1367.59C756.388,1367.59 751.452,1368.86 747.079,1371.39C742.707,1373.93 739.181,1377.53 736.502,1382.18C733.963,1386.84 732.694,1392.48 732.694,1399.11C732.694,1405.6 733.963,1411.24 736.502,1416.03C739.181,1420.69 742.707,1424.28 747.079,1426.82C751.452,1429.36 756.388,1430.63 761.888,1430.63ZM877.822,1357.14C880.932,1352.9 884.881,1349.47 889.669,1346.85C897.144,1342.62 906.241,1340.51 916.96,1340.51L916.96,1370.97C915.549,1370.83 914.28,1370.76 913.152,1370.76C912.023,1370.62 910.824,1370.55 909.555,1370.55C900.529,1370.55 893.195,1373.16 887.553,1378.38C882.053,1383.45 879.303,1391.42 879.303,1402.28L879.303,1456.02L846.3,1456.02L846.3,1342.2L877.822,1342.2L877.822,1357.14ZM1019.99,1442.87C1017.14,1446.31 1013.83,1449.14 1010.05,1451.36C1002.99,1455.59 994.46,1457.71 984.446,1457.71C973.727,1457.71 964.066,1455.31 955.463,1450.52C946.86,1445.58 940.019,1438.74 934.942,1430C930.006,1421.25 927.537,1410.95 927.537,1399.11C927.537,1387.12 930.006,1376.75 934.942,1368.01C940.019,1359.27 946.86,1352.5 955.463,1347.7C964.066,1342.9 973.727,1340.51 984.446,1340.51C994.037,1340.51 1002.43,1342.62 1009.62,1346.85C1012.93,1348.8 1015.89,1351.2 1018.51,1354.07L1018.51,1299.04L1051.51,1299.04L1051.51,1456.02L1019.99,1456.02L1019.99,1442.87ZM990.158,1430.63C995.518,1430.63 1000.38,1429.36 1004.76,1426.82C1009.13,1424.28 1012.58,1420.69 1015.12,1416.03C1017.8,1411.24 1019.14,1405.6 1019.14,1399.11C1019.14,1392.48 1017.8,1386.84 1015.12,1382.18C1012.58,1377.53 1009.13,1373.93 1004.76,1371.39C1000.38,1368.86 995.518,1367.59 990.158,1367.59C984.658,1367.59 979.721,1368.86 975.349,1371.39C970.977,1373.93 967.451,1377.53 964.771,1382.18C962.233,1386.84 960.963,1392.48 960.963,1399.11C960.963,1405.6 962.233,1411.24 964.771,1416.03C967.451,1420.69 970.977,1424.28 975.349,1426.82C979.721,1429.36 984.658,1430.63 990.158,1430.63Z"/>
            </g>
        </g>
    </g>
</svg>
