<?xml version="1.0" encoding="UTF-8" standalone="no"?>
<!DOCTYPE svg PUBLIC "-//W3C//DTD SVG 1.1//EN" "http://www.w3.org/Graphics/SVG/1.1/DTD/svg11.dtd">
<svg width="100%" height="100%" fill="white" viewBox="0 0 773 500" version="1.1" xmlns="http://www.w3.org/2000/svg" xmlns:xlink="http://www.w3.org/1999/xlink" xml:space="preserve" xmlns:serif="http://www.serif.com/" style="fill-rule:evenodd;clip-rule:evenodd;stroke-linejoin:round;stroke-miterlimit:2;">
    <g transform="matrix(1,0,0,1,-8071.27,-5381.32)">
        <g id="Kyanoxia-Type-Shape" serif:id="Kyanoxia Type Shape" transform="matrix(0.75459,0,0,0.488281,8071.27,5381.32)">
            <g clip-path="url(#_clip1)">
                <g transform="matrix(-1.00396,0,0,1.55152,6799.29,-7622.41)">
                    <path d="M6312.49,5352.88L6372.49,5352.88L6502.49,5222.88L6632.49,5352.88L6772.49,5352.88L6572.49,5152.88L6492.49,5152.88L6332.49,4992.88L6232.49,4992.88L6232.49,5032.88L6392.49,5192.88L6272.49,5312.88L6112.49,5152.88L6052.49,5152.88L6292.49,4912.88L6152.49,4912.88L5752.49,5312.88L5752.49,5352.88L5852.49,5352.88L6012.49,5192.88L6392.49,5572.88L6492.49,5572.88L6492.49,5532.88L6312.49,5352.88Z"/>
                </g>
                <g transform="matrix(1.00396,0,0,1.55152,-6136.68,-7979.26)">
                    <path d="M6272.49,5312.88L6442.49,5142.88L6542.49,5142.88L6542.49,5182.88L6372.49,5352.88L6272.49,5352.88L6272.49,5312.88Z"/>
                </g>
                <g transform="matrix(0.501979,0,0,0.775758,-2586.44,-3625.02)">
                    <path d="M6672.49,5312.88L6772.49,5412.88L6572.49,5412.88L6672.49,5312.88ZM6672.49,5332.22L6605.5,5399.21L6739.48,5399.21L6672.49,5332.22Z"/>
                </g>
            </g>
        </g>
    </g>
</svg>
