<?xml version="1.0" encoding="UTF-8" standalone="no"?>
<!DOCTYPE svg PUBLIC "-//W3C//DTD SVG 1.1//EN" "http://www.w3.org/Graphics/SVG/1.1/DTD/svg11.dtd">
<svg width="100%" height="100%" viewBox="0 0 1000 1000" version="1.1" xmlns="http://www.w3.org/2000/svg" xmlns:xlink="http://www.w3.org/1999/xlink" xml:space="preserve" xmlns:serif="http://www.serif.com/" style="fill-rule:evenodd;clip-rule:evenodd;stroke-linejoin:round;stroke-miterlimit:2;">
    <g transform="matrix(1,0,0,1,0,-2200)">
        <g id="Icon-Flat-Light" serif:id="Icon Flat Light" transform="matrix(1,0,0,1,0,2200)">
            <rect x="0" y="0" width="1000" height="1000" style="fill:none;"/>
            <g transform="matrix(1.41275,1.41275,-1.41275,1.41275,497.659,-910.405)">
                <g id="Base" transform="matrix(2.48278,0,0,3.3,-741.392,-1240)">
                    <path d="M576.026,552.91C577.875,560.116 574.639,567.644 567.228,572.675C558.621,578.518 546.138,579.802 535.763,575.911L512.577,567.216C504.657,564.246 495.343,564.246 487.423,567.216L464.237,575.911C453.862,579.802 441.379,578.518 432.772,572.675C425.361,567.644 422.125,560.115 423.975,552.908C441.744,558.483 460.004,561.747 466.911,562.172C473.517,562.579 478.229,560.088 481.736,555.847C484.615,552.366 486.652,547.594 488.519,542.706C490.547,537.399 492.356,531.944 495.263,528.253C496.546,526.623 497.977,525.343 500.004,524.958C502.031,525.343 503.461,526.623 504.745,528.253C507.651,531.944 509.46,537.399 511.488,542.706C513.355,547.594 515.393,552.366 518.271,555.847C521.778,560.088 526.49,562.579 533.096,562.172C540.003,561.747 558.259,558.484 576.026,552.91ZM458.403,483.194L473.611,452.778C477.745,444.509 488.258,439.034 500,439.034C511.742,439.034 522.255,444.509 526.389,452.778L541.598,483.195C538.008,482.614 535.078,482.257 533.089,482.134C526.483,481.727 521.771,484.219 518.264,488.46C515.385,491.94 513.348,496.712 511.481,501.6C509.453,506.907 507.644,512.362 504.737,516.053C503.454,517.683 502.023,518.963 499.996,519.348C497.969,518.963 496.539,517.683 495.255,516.053C492.349,512.362 490.54,506.907 488.512,501.6C486.645,496.712 484.607,491.94 481.729,488.46C478.222,484.219 473.51,481.727 466.904,482.134C464.916,482.256 461.989,482.614 458.403,483.194Z" style="fill:white;"/>
                </g>
                <g id="Petal" transform="matrix(1.01785,0,0,1,-8.92775,-6.89479)">
                    <path d="M220.635,499.074C220.635,499.073 220.635,499.072 220.635,499.07C222.732,498.918 224.754,498.014 226.304,496.443L226.309,496.441C226.177,496.616 224.426,498.846 220.635,499.074ZM481.292,490.009C478.261,492.995 475.529,496.64 473.072,500.861C465.337,514.152 460.221,533.69 454.824,552.802C450.76,567.194 446.545,581.332 440.28,591.581C435.547,599.323 429.661,604.68 420.747,603.937C399.71,602.184 333.129,584.895 283.621,556.075C267.606,546.751 253.385,536.24 243.313,524.543C234.266,514.036 228.609,502.649 228.948,490.253L226.335,496.43L226.326,496.408L228.93,489.747C228.591,477.351 234.248,465.964 243.295,455.457C253.367,443.76 267.588,433.249 283.603,423.925C333.111,395.105 399.692,377.816 420.729,376.063C429.643,375.32 435.529,380.677 440.262,388.419C446.527,398.668 450.742,412.806 454.806,427.198C460.203,446.31 465.319,465.848 473.054,479.139C475.516,483.368 478.254,487.019 481.292,490.009Z" style="fill:white;"/>
                </g>
                <g id="Petal1" serif:id="Petal" transform="matrix(-1.01785,1.24651e-16,-1.22465e-16,-1,1008.93,973.105)">
                    <path d="M228.92,489.227C228.75,477.033 234.375,465.817 243.295,455.457C253.367,443.76 267.588,433.249 283.603,423.925C333.111,395.105 399.692,377.816 420.729,376.063C429.643,375.32 435.529,380.677 440.262,388.419C446.527,398.668 450.742,412.806 454.806,427.198C460.203,446.31 465.319,465.848 473.054,479.139C475.516,483.368 478.254,487.019 481.292,490.009C478.261,492.995 475.529,496.64 473.072,500.861C465.337,514.152 460.221,533.69 454.824,552.802C450.76,567.194 446.545,581.332 440.28,591.581C435.547,599.323 429.661,604.68 420.747,603.937C399.71,602.184 333.129,584.895 283.621,556.075C267.606,546.751 253.385,536.24 243.313,524.543C234.266,514.036 228.609,502.649 228.948,490.253C228.958,489.908 228.948,489.565 228.92,489.227Z" style="fill:white;"/>
                </g>
            </g>
        </g>
    </g>
</svg>
